<?xml version="1.0" encoding="utf-8"?>
<!-- Generator: Adobe Illustrator 16.0.0, SVG Export Plug-In . SVG Version: 6.00 Build 0)  -->
<!DOCTYPE svg PUBLIC "-//W3C//DTD SVG 1.1//EN" "http://www.w3.org/Graphics/SVG/1.1/DTD/svg11.dtd">
<svg version="1.1" id="Layer_1" xmlns="http://www.w3.org/2000/svg" xmlns:xlink="http://www.w3.org/1999/xlink" x="0px" y="0px"
	 width="257.333px" height="329.469px" viewBox="0 0 257.333 329.469" enable-background="new 0 0 257.333 329.469"
	 xml:space="preserve">
<polygon fill="#FFFFFF" points="53.656,269.219 53.656,270.813 57.344,270.672 57.344,270.016 53.434,268.563 "/>
<polygon fill="#FFFFFF" points="109.326,311.393 110.514,308.905 163.25,281.688 164.875,282.406 165.344,284.719 165.219,286.844 
	163.438,289.422 113.781,314.839 110.205,314.375 109.206,312.469 "/>
<path fill="#EBD1B7" d="M151.286,43.249v1.062l3.021,5.029l3.261,5.633l3.938,7.259l2.149,4.465l1.025-0.014l0.902,1.586
	c0,0,0.913,1.613,0.606,2.82s-0.851,2.916-0.851,2.916h-1.013l-6.394,17.429l-1.911,6.698l-1.269,6.458l-0.307,3.541l0.225,3.947
	l1.093,3.245l1.699,2.62l3.261,3.5l2.997,1.963l3.453,1.68l0.447,2.816l-0.417,2.258l-1.871,1.249l-2.984,0.391l-1.942,0.515
	l-1.334,2.679l0.026,2.904l0.278,3.507l-0.246,1.451l-1.978,1.654l1.722,2.013l0.059,1.831l-1.085,2.13l-5.845,6.693l-2.894,3.78
	l-3.616,5.168l-1.073,1.635l-0.45,0.939l-0.283,0.709l-0.759,0.949l-1.451,1.332l-3.081,2.195l-3.685,1.902l-3.957,1.74
	l-5.281,2.563l-3.563,1.09l-6.563,2.717l-1.263-0.336l-1.751,1.223l-5.177-0.533l-26.316-3.07l-29.094-11.771l-5.789-8.664
	l-7.176-9.279l4.375-8.743l3.129-8.276l1.607-6.855l0.02-4.249l0.229-6.736l1.061-2.59l2.545-2.824l4.1-0.772l4.813,2.546
	l3.625,4.438l7.563,10l7.313,8.625l3.375,3.125l0.449-1.114l-1.059-2.982l-1.141-5.029l-0.797-8.467l2.664-16.877l6.259-22.363
	l13.835-37.444l1.103,4.258l4.688-5.561l9.146,5.727l-0.343-6.22l7.65-0.386l5.027,1.105l17.167,3.917l-0.753-5.75L151.286,43.249z"
	/>
<polygon fill="#FFFFFF" points="145.856,115.17 148.026,110.649 149.379,105.417 149.973,101.715 149.127,95.81 147.434,90.098 
	145.68,86.494 144.536,86.494 141.519,87.284 135.397,89.961 131.623,92.607 128.56,95.481 125.93,98.903 126.776,102.635 
	128.098,106.403 131.209,109.792 134.417,112.29 137.952,113.715 141.716,115.061 144.911,115.465 "/>
<polygon fill="#EBD1B7" points="167.628,190.531 177.941,186.375 186.973,184.199 193.057,184.334 199.156,186.1 203.818,190.299 
	207.268,198.527 206.598,202.902 205.145,204.314 202.848,204.922 200.41,204.922 195.473,202.648 191.223,199.09 188.473,200.215 
	178.398,202.455 173.344,202.859 170.614,202.387 169.125,203.186 167.628,204.922 "/>
<polygon fill="#A58A77" points="146.973,48.715 131.223,43.249 116.473,43.249 118.598,50.84 108.097,43.249 103.202,49.59 
	103.43,43.249 89.098,80.09 83.535,100.979 80.59,115.711 79.896,125.552 80.264,129.885 81.016,133.631 83.182,138.589 
	83.182,138.923 80.723,138.089 73.848,130.048 65.348,119.298 60.834,113.178 56.754,110.653 53.291,110.552 50.814,111.905 
	48.316,115.465 47.895,118.778 48.098,127.747 43.598,141.965 38.914,151.967 33.566,146.809 26.313,137.426 21.613,124.849 
	18.826,113.375 16.102,97.105 4.756,102.023 9.797,86.494 16.457,71.707 23.865,57.292 29.957,46.372 27.75,45.787 23.139,47.243 
	5.639,55.79 13.607,44.271 24.781,32.967 33.682,26.77 42.484,22.494 55.299,18.571 51.266,16.37 41.008,11.469 49.848,10.715 
	63.936,13.063 71.598,7.707 83.465,4.42 98.225,2.631 112.098,1.84 131.49,3.68 144.737,5.379 128.56,12.767 142.1,15.334 
	158.646,20.964 166.81,24.218 145.451,29.627 154.66,36.926 163.024,45.532 146.101,41.884 "/>
<polygon fill="#619BAC" points="167.628,190.531 81.965,181.633 51.748,169.408 51.346,171.74 50.932,175.201 50.756,181.549 
	51.43,184.465 53.434,184.883 53.434,250.434 101.096,250.434 101.41,241.043 100.669,235.938 99.727,233.213 98.765,231.088 
	96.585,229.477 93.855,225.516 91.559,220.154 89.295,212.771 87.285,204.063 118.514,204.928 161.516,205.266 167.628,205.266 "/>
<polygon fill="#A58A77" points="145.036,167.293 144.727,167.293 144.18,168.184 143.708,169.34 142.77,170.543 140.661,172.465 
	135.317,175.543 129.487,177.9 122.839,180.592 117.016,182.756 112.722,184.174 113.215,184.783 150.316,188.467 150.849,186.023 
	150.786,184.512 150.849,182.855 151.579,182.479 152.817,182.84 154.27,183.98 154.583,182.668 154.663,181.18 153.935,179.625 
	152.595,177.49 150.973,175.559 149.317,174.027 147.754,172.715 148.696,172.195 150.188,172.037 151.862,172.424 153.716,173.246 
	154.283,173.467 154.181,172.846 153.417,171.805 152.292,170.902 150.899,170.041 149.617,169.365 148.379,168.762 
	147.239,168.277 145.708,167.684 144.958,167.355 "/>
<polygon fill="#797979" points="101.096,250.434 53.434,250.434 53.434,268.924 60.104,270.5 93.477,270.672 93.477,272.783 
	112.18,300.938 117.734,292.424 122.502,286.115 127.16,281.338 129.687,279.855 131.369,279.855 131.127,277.996 130.321,276.42 
	118.332,261.662 110.43,253.23 105.911,251.84 "/>
<polygon fill="#797979" points="160.467,277.08 156.39,273.777 151.448,271.559 147.426,271.34 142.708,272.463 137.386,274.549 
	132.098,277.08 126.931,278.133 112.181,299.215 110.976,301.781 109.587,305.107 109.206,306.201 109.591,308.422 110.205,309.064 
	163.679,281.57 161.765,280.549 "/>
<polygon fill="#221F16" points="166.168,69.553 164.68,66.684 159.004,66.899 151.535,67.755 143.728,69.553 137.261,72.042 
	134.069,73.774 131.599,75.467 129.566,77.228 134.847,76.132 142.986,74.005 148.764,73.048 154.85,72.845 160.914,73.331 
	165.243,74.278 166.044,71.707 "/>
<path fill="#D2E7D8" d="M149.023,102.519l-0.04-1.926l-0.413-0.86l-0.657,0.347c0,0-0.599,0.843-0.639,0.912
	s-0.843,1.708-0.843,1.708l-0.655,2.111l-0.809,2.107l-0.691,2.518l-0.341,2.457l-0.057,2.187l0.309,0.858l0.62-0.218l0.939-1.332
	l1.22-2.775l1.274-4.187L149.023,102.519z"/>
<polygon fill="#754C29" stroke="#010101" stroke-linejoin="round" stroke-miterlimit="10" points="48.398,279.855 53.434,279.855 
	53.434,197.938 43.363,197.938 "/>
<polygon fill="#754C29" stroke="#010101" stroke-linejoin="round" stroke-miterlimit="10" points="46.744,328.881 55.117,328.881 
	53.434,279.855 48.398,279.855 "/>
<polygon fill="#754C29" stroke="#010101" stroke-linejoin="round" stroke-miterlimit="10" points="86.73,328.881 95.104,328.881 
	93.42,279.855 88.385,279.855 "/>
<rect x="53.434" y="270.672" fill="#754C29" stroke="#010101" stroke-linejoin="round" stroke-miterlimit="10" width="40.043" height="9.184"/>
<rect x="167.628" y="215.023" fill="#754C29" stroke="#010101" stroke-linejoin="round" stroke-miterlimit="10" width="88.719" height="7.02"/>
<rect x="239.848" y="222.043" fill="#754C29" stroke="#010101" stroke-linejoin="round" stroke-miterlimit="10" width="10" height="106.838"/>
<rect x="173.348" y="222.043" fill="#754C29" stroke="#010101" stroke-linejoin="round" stroke-miterlimit="10" width="10" height="106.838"/>
<path fill="#C0A68C" d="M107.159,184.25l-5.361-6.482l-3.822-4.053l-2.252-2.25l-1.424-1.355l-2.352-2.107l-2.127-1.719
	l-1.408-1.008l-0.792-0.504l-0.73-0.418l-0.877-0.422l-0.65-0.244l-0.627-0.16l-0.311-0.045l-0.328-0.018
	c0,0,14.954,15.775,14.633,19.92l3.242,0.455L107.159,184.25z"/>
<path fill="#C0A68C" d="M70.426,150.237l-6.861-1.307l-2.73-1.163l-3.205-1.982l-3.039-2.765l-2.273-3.003l-2.121-4.223
	l-0.795-2.318l-1.506-5.884l-0.803,4.116l-0.805,2.739c0,0,8.393,25.019,26.811,17.186c0,0,1.883-2.833,1.316-4.833l-1.482,2.083
	L70.426,150.237z"/>
<path fill="#C0A68C" d="M63.111,124.849l-2.277-2.122l-2.236-1.928L57,119.569l-2.357-1.297l-0.053,3.289l1.543,11.049l2.342,5.211
	l2.359,2.393l1.879,0.903l2.895,0.25l1.473-0.346c0,0-3.457-4.359-3.969-7.082l-1.408-0.348l-1.105-0.5l-0.645-0.563l-0.688-1.042
	l-0.404-1.158l0.133-1.09l0.104-1.27l0.938-0.916l0.885-0.228l2.408-0.038h0.438C63.766,126.788,63.873,125.229,63.111,124.849z"/>
<path fill="#C0A68C" d="M157.153,144.509l-31.252,0.385l-0.715-1.238l-0.49-0.943l-0.771-1.736c0,0,0.518,3.394,1.83,4.8
	l32.881,0.464L157.153,144.509z"/>
<path fill="#C0A68C" d="M151.264,131.707l1.529-0.605l1.529-0.392l1.947-0.374l1.648-0.259l1.588-0.216l0.961-0.116h0.465
	c0,0,3.709,0.454,0.625,1.962l-1.051,0.541C160.506,132.248,156.889,131.489,151.264,131.707z"/>
<path fill="#7E624E" d="M98.225,2.631l14.498,5.075l-9.521,3.509l20.723,9h-14.732l16.738,12.557l-14.082-1.89v6l-6.834-4.11
	c0,0-24.02,37.394-19.834,61.956l8.334-25.846l9.395-24.392l0.271,4.482c0,0,5.629-5.72,5.357-5.398s9.326,6.735,9.326,6.735
	l-0.523-7.228c0,0,14.217-1.155,29.947,5.031l-0.855-6.145l16.26,4.13c0,0-12.438-15.424-17.264-15.944l20.578-5.733
	c0,0-27.906-13.121-37.572-11.371l0.902-1.238l15.4-6.434C144.737,5.379,101.516,0.545,98.225,2.631z"/>
<path fill="#7E624E" d="M144.473,168.135c0,0,2.293,1.539,2.5,1.955c0,0-3.959,2.166-4.541,3.834c0,0,5.291,2.832,5.25,4.5
	c0,0-7.125-0.17-8.125,1.414c0,0,2.777,4.992,1.451,7.705l-28.285-2.762l1.107-1.043l6.73-2.357l7.75-3.084l5.568-2.082l2.734-1.297
	l2.156-1.234l1.359-0.922l1.688-1.344l0.844-0.766l0.469-0.516l0.559-0.729l0.559-1.33l0.48-0.785L144.473,168.135z"/>
<path fill="#C0A68C" d="M150.415,122.271c0,0-3.9-0.89-4.734,2.944s4.002,8.232,5.125,6.491l-1.334-0.908l-1.275-1.479l-0.975-2.179
	l-0.428-1.925l0.471-1.25l0.707-0.792l0.875-0.375L150.415,122.271z"/>
<path fill="#51504E" d="M77.348,250.434l-0.355,1.33l-1.344,1.502l-0.965,0.793l-1.229,0.799l-1.641,0.801l-1.746,0.609
	l-1.799,0.426l-1.76,0.258c0,0,1.463-5.299-1.85-6.518H77.348z"/>
<path fill="#51504E" d="M56.598,250.434c0,0-0.375,12.656,7.375,15.531s25.375,4.686,25.375,4.686l-5.125,0.021H58.41l-4.977-1.748
	v-18.49H56.598z"/>
<path fill="#51504E" d="M93.477,270.672c0,0,7.371,6.711,10.705,7.545c3.334,0.832,11.584,13.75,11.584,13.75
	s0.715,1.453,0.732,2.352l-1.111,1.703l-3.207,4.916l-18.703-28.154V270.672z"/>
<path fill="#51504E" d="M153.815,272.621c0,0-37.654,34.045-44.227,32.486l-0.383,1.094l1,2.863l53.475-27.494l-1.748-0.938
	l-1.307-3.402C160.625,277.23,155.114,272.193,153.815,272.621z"/>
<ellipse transform="matrix(-0.8899 0.4561 -0.4561 -0.8899 395.8763 501.8448)" fill="#D1D3D4" cx="137.387" cy="298.688" rx="28.162" ry="1.132"/>
<polyline fill="#6B7582" points="56.441,250.402 53.434,250.184 53.434,184.883 56.037,184.963 "/>
<path fill="#6B7582" d="M87.283,204.063l1.038,4.783c0,0-26.227,1.125-24.756-18.314l1.783,5.184l2.955,3.98l2.92,2.207l5.813,1.375
	L87.283,204.063z"/>
<polygon fill="#6B7582" points="64.434,187.857 53.434,185.941 53.434,184.682 65.533,185.941 "/>
<path fill="#6B7582" d="M63.732,189.781c0,0,5.723,10.916,28.668,11.926c22.945,1.008,75.221,1.008,75.221,1.008l0.008,2.551
	l-82.774-1.348l-6.725-0.557l-4.834-0.771l-3.865-1.943l-2.346-2.262l-1.553-2.42l-1.178-2.479l-0.791-2.955L63.732,189.781z"/>
<path fill="#C0A68C" d="M198.824,185.928c0,0-22.561-0.629-31.203,10.955l0.008-6.352l2.582-1.229l4.21-1.723l3.52-1.205
	l5.406-1.592l5.125-0.584h3.959L198.824,185.928z"/>
<polygon fill="#603913" points="93.477,279.855 93.553,283.717 88.256,283.717 88.385,279.855 "/>
<polygon fill="#603913" points="53.504,279.855 53.58,283.717 48.283,283.717 48.412,279.855 "/>
<rect x="53.434" y="277.98" fill="#603913" width="40.043" height="1.875"/>
<rect x="50.863" y="197.965" fill="#603913" width="2.344" height="81.891"/>
<rect x="167.622" y="219.627" fill="#603913" width="88.726" height="2.254"/>
<g>
	<path d="M107.182,184.689c0,0-4.96-6.217-10.499-11.924c-2.764-2.852-5.68-5.572-8.116-7.291c-0.61-0.428-1.188-0.789-1.714-1.088
		c-0.27-0.138-0.521-0.266-0.755-0.384c-0.243-0.098-0.465-0.188-0.667-0.269c-0.415-0.122-0.744-0.226-0.979-0.231
		c-0.232-0.024-0.355-0.038-0.355-0.038s0.124,0.01,0.357,0.027c0.236-0.002,0.568,0.092,0.99,0.201
		c0.206,0.075,0.433,0.158,0.68,0.249c0.239,0.112,0.497,0.233,0.772,0.362c0.539,0.284,1.132,0.63,1.758,1.041
		c2.504,1.651,5.518,4.292,8.381,7.066c5.738,5.553,10.916,11.641,10.916,11.641L107.182,184.689z"/>
</g>
<g>
	<path d="M164.326,74.005l-3.293,10.197c-0.551,1.695-0.988,3.425-1.597,5.094c-0.587,1.677-1.115,3.372-1.615,5.073
		c-0.985,3.403-1.854,6.847-2.321,10.327c-0.23,1.737-0.364,3.485-0.293,5.206c0.064,1.714,0.369,3.421,1.113,4.852
		c0.386,0.681,0.9,1.532,1.379,2.212l0.751,1.034l0.831,0.986c1.141,1.284,2.446,2.403,3.91,3.271
		c0.739,0.428,1.498,0.806,2.312,1.144c0.406,0.177,0.82,0.342,1.261,0.557c0.213,0.093,0.459,0.252,0.687,0.393
		c0.247,0.208,0.499,0.402,0.675,0.788c0.109,0.168,0.126,0.355,0.152,0.544l0.026,0.282c0.006,0.037,0,0.106,0.001,0.158
		c-0.007,0.232-0.002,0.438,0.009,0.629c0.017,0.415,0.058,0.872,0.063,1.353c0.01,0.476-0.013,0.993-0.153,1.528
		c-0.116,0.536-0.434,1.082-0.841,1.492c-0.864,0.816-1.913,1.059-2.854,1.207c-0.951,0.168-1.949,0.068-2.652,0.196
		c-0.725,0.119-1.29,0.471-1.619,1.064c-0.346,0.592-0.461,1.411-0.488,2.235c-0.05,1.684,0.286,3.415,0.357,5.299
		c0.007,0.479,0.008,0.971-0.131,1.536c-0.029,0.138-0.084,0.288-0.151,0.438l-0.024,0.056l-0.012,0.028l-0.049,0.087l-0.045,0.071
		l-0.089,0.142c-0.128,0.192-0.218,0.368-0.377,0.575c-0.721,0.976-2.042,1.542-3.33,0.991l0.531-1.395
		c0.738,0.23,1.341,0.539,1.935,1.009c0.58,0.454,1.086,1.133,1.286,1.919c0.215,0.781,0.125,1.599-0.119,2.273
		c-0.12,0.343-0.241,0.687-0.424,0.977c-0.172,0.298-0.322,0.623-0.534,0.878l-0.597,0.811l-0.661,0.731l-1.275,1.387l-1.277,1.384
		l-1.177,1.432l-1.244,1.38l-1.219,1.423c-0.826,0.939-1.598,1.924-2.39,2.896c-0.787,0.975-1.548,1.972-2.311,2.968
		c-0.764,0.996-1.524,1.996-2.26,3.016c0.612-1.099,1.25-2.183,1.896-3.264c0.663-1.069,1.325-2.141,2.015-3.195
		c0.697-1.05,1.374-2.115,2.11-3.143c0.722-1.035,1.434-2.083,2.24-3.078l1.24-1.454l1.278-1.383l1.272-1.386l0.603-0.665
		l0.519-0.705c0.192-0.229,0.299-0.485,0.443-0.728c0.158-0.243,0.236-0.495,0.326-0.744c0.183-0.5,0.216-0.99,0.098-1.418
		c-0.108-0.431-0.378-0.826-0.783-1.145c-0.385-0.318-0.924-0.583-1.382-0.726l0.531-1.395c0.396,0.179,1.084-0.038,1.418-0.491
		c0.116-0.142,0.237-0.364,0.355-0.542l0.089-0.142l0.045-0.071c0.038-0.064-0.038,0.067-0.03,0.05l0.004-0.011l0.008-0.022
		c0.023-0.054,0.049-0.112,0.064-0.193c0.078-0.303,0.094-0.713,0.083-1.124c-0.056-1.683-0.406-3.486-0.356-5.379
		c0.04-0.944,0.138-1.962,0.684-2.934c0.271-0.479,0.67-0.918,1.147-1.227c0.48-0.322,1.002-0.473,1.53-0.575
		c1.061-0.163,1.87-0.046,2.682-0.2c0.801-0.114,1.569-0.354,2.012-0.787c0.44-0.415,0.575-1.099,0.552-1.936
		c-0.003-0.412-0.042-0.845-0.062-1.321c-0.012-0.254-0.017-0.495-0.009-0.709c0-0.06,0.005-0.102,0-0.176
		c-0.008-0.018-0.013-0.034-0.015-0.05c-0.005-0.032,0.017-0.077-0.02-0.09c0.001-0.04-0.103-0.123-0.194-0.208
		c-0.155-0.085-0.28-0.181-0.476-0.267c-0.362-0.177-0.776-0.344-1.188-0.523c-0.834-0.346-1.677-0.763-2.482-1.23
		c-1.609-0.953-3.042-2.185-4.27-3.567l-0.894-1.061l-0.821-1.133c-0.291-0.378-0.498-0.758-0.74-1.137
		c-0.237-0.403-0.466-0.704-0.709-1.192c-0.905-1.75-1.213-3.653-1.288-5.491c-0.076-1.848,0.066-3.672,0.305-5.471
		c0.485-3.599,1.37-7.099,2.369-10.549c0.497-1.727,1.063-3.43,1.611-5.137c0.53-1.714,1.285-3.349,1.966-5.003
		C161.358,80.509,162.836,77.255,164.326,74.005z"/>
</g>
<path fill="none" stroke="#000000" stroke-width="1.5" stroke-miterlimit="10" d="M150.442,42.825c0,0,9.525,15.477,13.213,23.873"
	/>
<path fill="none" stroke="#000000" stroke-miterlimit="10" d="M42.77,92.218"/>
<path fill="none" stroke="#000000" stroke-miterlimit="10" d="M25.922,136.64"/>
<path fill="none" stroke="#000000" stroke-miterlimit="10" d="M38.83,152.133c0,0,9.227-17.712,9.299-25.292"/>
<g>
	<path d="M156.505,145.13l-30.604-0.127h-0.064l-0.03-0.051l0-0.001c-0.72-1.219-1.361-2.481-1.874-3.799
		c-0.252-0.66-0.469-1.335-0.594-2.032c-0.109-0.684-0.162-1.451,0.227-2.059c-0.372,0.617-0.299,1.374-0.173,2.049
		c0.142,0.688,0.375,1.353,0.642,2.001c0.542,1.295,1.214,2.537,1.957,3.724l0,0l-0.094-0.051l30.583-1.117L156.505,145.13z"/>
</g>
<path fill="none" stroke="#010101" stroke-miterlimit="10" d="M128.56,78.355c0,0,8.12-11.422,36.12-11.672
	c0,0,1.563,2.525,1.625,3.407c0.072,1.043-1.063,4.188-1.063,4.188S150.31,69.105,128.56,78.355z"/>
<path fill="none" stroke="#010101" stroke-miterlimit="10" d="M93.477,272.783l18.703,28.154c0,0,12.709-21.254,18.375-21.223
	S110.43,253.23,110.43,253.23l-9.334-2.797l0,0c0,0,2.186-15.871-3.666-20.219c-4.854-3.605-8.298-16.996-10.147-26.152"/>
<path fill="none" stroke="#010101" stroke-miterlimit="10" d="M61.137,270.713"/>
<path fill="none" stroke="#010101" stroke-miterlimit="10" d="M53.434,184.883v84.041c0,0,2.965,0.814,7.504,1.748"/>
<path fill="none" stroke="#010101" stroke-miterlimit="10" d="M38.783,152.08c4.457,4.998,9.615,11.357,12.965,17.328"/>
<g>
	<path fill="#010101" d="M151.204,42.705l12.81,2.698l-1.001,1.625l-0.001-0.001c-2.8-3.172-5.753-6.26-8.825-9.17
		c-0.779-0.713-1.546-1.446-2.35-2.124c-0.79-0.701-1.608-1.353-2.428-2.002c-0.414-0.317-0.839-0.608-1.258-0.915
		c-0.414-0.32-0.858-0.552-1.286-0.829c-0.428-0.293-0.873-0.467-1.309-0.686l-0.328-0.157l-0.317-0.085l-0.629-0.187l-3.609-1.067
		l3.515-0.89l22.376-5.667l-0.145,1.89c-6.735-2.795-13.599-5.382-20.541-7.609c-3.474-1.103-6.979-2.114-10.513-2.873
		c-1.766-0.377-3.543-0.678-5.301-0.819c-0.88-0.075-1.746-0.079-2.587-0.028c-0.812,0.092-1.628,0.249-2.164,0.581l-0.9-1.773
		l21.021-8l0.185,1.92c-3.454-0.57-6.963-1.038-10.461-1.448c-3.503-0.407-7.014-0.748-10.529-1.021
		c-7.03-0.526-14.082-0.806-21.117-0.638c-1.759,0.031-3.515,0.115-5.27,0.206c-1.752,0.122-3.508,0.217-5.25,0.415
		c-1.749,0.156-3.484,0.399-5.22,0.634c-1.725,0.29-3.456,0.558-5.157,0.95c-0.857,0.172-1.707,0.365-2.545,0.6
		c-0.838,0.232-1.695,0.413-2.514,0.7c-0.823,0.274-1.662,0.509-2.472,0.814l-2.415,0.947l-2.332,1.109l-2.222,1.285
		c-0.708,0.474-1.384,0.988-2.079,1.477c-0.643,0.547-1.256,1.126-1.889,1.686l-0.433,0.383l-0.499-0.108
		c-3.813-0.823-7.691-1.521-11.56-2.014c-1.935-0.241-3.876-0.432-5.795-0.482c-0.958-0.023-1.914-0.016-2.833,0.073
		c-0.903,0.082-1.833,0.284-2.372,0.613l-0.205-1.769c3.243,1.225,6.459,2.477,9.66,3.833c1.603,0.692,3.183,1.365,4.791,2.252
		l0.634,0.407c0.1,0.06,0.293,0.25,0.421,0.386l0.103,0.115l0.05,0.058l0.024,0.029c0.061,0.146-0.103-0.285,0.143,0.334l0.01,0.039
		l0.011,0.058c0.012,0.09,0.015,0.192,0.001,0.299c-0.024,0.215-0.127,0.429-0.241,0.568c-0.06,0.069-0.085,0.088-0.132,0.132
		c-0.369,0.289-0.457,0.264-0.619,0.341c-0.135,0.046-0.262,0.087-0.376,0.117c-0.236,0.067-0.451,0.118-0.669,0.169l-2.522,0.576
		c-6.629,1.532-12.978,4.143-18.771,7.7c-5.799,3.549-11.023,8.013-15.597,13.06C12.79,46.469,8.864,52.103,5.489,58.044
		l-1.415-1.332c4.031-2.577,8.111-5.024,12.327-7.296c2.111-1.128,4.25-2.213,6.489-3.154c1.123-0.467,2.266-0.902,3.498-1.222
		c0.622-0.152,1.253-0.292,1.985-0.306c0.363-0.006,0.756,0.012,1.206,0.157c0.437,0.13,0.976,0.475,1.254,1l0.266,0.502
		l-0.281,0.483c-2.579,4.446-5.063,8.976-7.48,13.525c-1.209,2.276-2.39,4.567-3.558,6.864l-1.723,3.459
		c-0.579,1.151-1.135,2.312-1.685,3.476c-0.547,1.165-1.122,2.318-1.646,3.494l-1.594,3.515l-1.521,3.543
		c-0.518,1.178-0.986,2.373-1.452,3.568c-0.463,1.196-0.962,2.382-1.367,3.595c-0.416,1.21-0.871,2.411-1.254,3.628l-1.094,3.665
		l-0.844,3.702l-1.423-1.079l11.482-5.625l1.262-0.619l0.171,1.398v0c0.561,5.015,1.322,10.049,2.234,15.034
		c0.952,4.981,2.078,9.932,3.52,14.783c0.36,1.212,0.741,2.419,1.157,3.611c0.411,1.195,0.86,2.375,1.347,3.537
		c0.477,1.166,1.007,2.307,1.578,3.423c0.572,1.115,1.205,2.195,1.913,3.212c0.714,1.037,1.503,1.905,2.424,2.818l2.678,2.721
		c0.449,0.464,0.887,0.882,1.344,1.385l1.29,1.407l1.29,1.408l0.645,0.703l0.322,0.352l0.162,0.176l0.081,0.088
		c0.029,0.027,0.118,0,0.439-0.242l-1.471,1.355c0.268-0.301,0.302-0.387,0.277-0.418l-0.081-0.088l-0.162-0.175l-0.325-0.35
		l-0.649-0.7l-1.298-1.4l-1.298-1.399c-0.4-0.438-0.884-0.898-1.322-1.346l-2.694-2.706c-0.893-0.871-1.831-1.886-2.562-2.948
		c-0.752-1.066-1.415-2.184-2.011-3.33c-0.595-1.146-1.144-2.313-1.638-3.5c-0.506-1.182-0.963-2.382-1.396-3.588
		c-0.444-1.203-0.851-2.418-1.237-3.638c-1.548-4.882-2.763-9.854-3.819-14.852c-1.076-5-1.996-10.013-2.726-15.096l0,0l1.433,0.779
		l-11.482,5.625l-1.879,0.92l0.456-1.999l0.878-3.855l1.123-3.761c0.393-1.246,0.854-2.463,1.277-3.696
		c0.414-1.238,0.917-2.436,1.386-3.648c0.473-1.211,0.947-2.422,1.469-3.61l1.536-3.578l1.607-3.543
		c0.528-1.185,1.106-2.344,1.657-3.518c0.553-1.172,1.114-2.34,1.696-3.498l1.732-3.479c1.174-2.309,2.36-4.61,3.575-6.897
		c2.431-4.575,4.917-9.108,7.522-13.601l-0.015,0.986c-0.008-0.002,0.005-0.013-0.121-0.06c-0.116-0.042-0.324-0.066-0.553-0.058
		c-0.457,0.004-0.997,0.112-1.524,0.245c-1.068,0.276-2.152,0.683-3.219,1.128c-2.139,0.899-4.241,1.963-6.316,3.072
		c-4.145,2.232-8.214,4.673-12.183,7.211l-3.41,2.181l1.995-3.512c3.438-6.051,7.445-11.808,12.141-16.981
		c4.687-5.172,10.057-9.764,16.033-13.422c5.965-3.665,12.541-6.367,19.357-7.941l2.522-0.576l0.585-0.147l0.242-0.074
		c0.037,0,0.159-0.095-0.043,0.055c-0.027,0.026-0.03,0.031-0.071,0.081c-0.102,0.114-0.193,0.305-0.206,0.495
		c-0.007,0.094,0.001,0.185,0.019,0.262c0.018,0.071,0.002,0.009,0.005,0.02l-0.01-0.039c0.245,0.604,0.065,0.168,0.119,0.303
		l-0.005,0.001l-0.009,0.002l-0.014,0.002c-0.033-0.005,0.025,0.009-0.059-0.044L53.9,18.764c-1.414-0.781-3.009-1.471-4.573-2.143
		c-3.151-1.336-6.365-2.588-9.576-3.8l-1.901-0.718l1.696-1.051c0.579-0.358,1.147-0.549,1.688-0.68
		c0.544-0.132,1.073-0.203,1.597-0.26c1.045-0.1,2.065-0.105,3.079-0.081c2.025,0.053,4.014,0.25,5.993,0.497
		c3.958,0.505,7.851,1.206,11.749,2.047L62.72,12.85c0.689-0.617,1.366-1.253,2.07-1.849c0.749-0.532,1.485-1.089,2.248-1.597
		l2.373-1.372l2.463-1.171l2.527-0.992c0.846-0.318,1.713-0.563,2.569-0.847c0.854-0.297,1.732-0.484,2.599-0.724
		c0.867-0.242,1.742-0.441,2.621-0.618c1.75-0.402,3.519-0.677,5.283-0.972c1.771-0.241,3.542-0.488,5.319-0.647
		c1.774-0.201,3.555-0.297,5.333-0.421c1.779-0.093,3.559-0.177,5.339-0.209c7.12-0.17,14.232,0.113,21.317,0.644
		c3.542,0.275,7.079,0.619,10.607,1.028c3.532,0.415,7.042,0.881,10.571,1.464l3.648,0.602l-3.463,1.318l-21.021,8l-0.901-1.773
		c1.048-0.636,2.088-0.773,3.085-0.897c0.989-0.062,1.96-0.053,2.908,0.027c1.898,0.153,3.744,0.469,5.564,0.857
		c3.639,0.781,7.189,1.808,10.705,2.924c3.514,1.121,6.988,2.341,10.438,3.625c3.45,1.288,6.869,2.624,10.277,4.049l2.76,1.155
		l-2.905,0.735l-22.376,5.667l-0.094-1.958l0.914,0.251l0.455,0.133l0.397,0.186c0.521,0.254,1.073,0.486,1.53,0.798
		c0.471,0.301,0.976,0.573,1.409,0.907c0.445,0.324,0.902,0.639,1.337,0.972c0.857,0.678,1.71,1.359,2.521,2.079
		c0.831,0.701,1.611,1.447,2.409,2.178c3.138,2.974,6.104,6.075,8.964,9.314l0.001,0.001l2.047,2.534l-3.047-0.909l-12.545-3.742
		L151.204,42.705z"/>
</g>
<g>
	<path fill="#010101" d="M61.539,113.194c3.303,4.475,6.667,8.912,10.112,13.277c1.725,2.18,3.471,4.344,5.273,6.454
		c0.902,1.053,1.817,2.094,2.766,3.094c0.475,0.498,0.958,0.987,1.459,1.441c0.25,0.226,0.506,0.443,0.764,0.635
		c0.229,0.182,0.592,0.366,0.631,0.353c0.001-0.008-0.117,0.025-0.152,0.082c-0.035,0.045-0.019,0.04-0.016,0.002
		c0.013-0.078,0.003-0.229-0.022-0.375c-0.047-0.297-0.14-0.62-0.24-0.937c-0.205-0.637-0.46-1.275-0.728-1.908
		c-0.544-1.237-1.166-2.569-1.477-3.984c-0.667-2.787-0.749-5.631-0.668-8.437c0.217-5.621,1.176-11.151,2.335-16.612
		c2.382-10.918,5.696-21.589,9.301-32.137c1.812-5.273,3.722-10.511,5.706-15.72c1.989-5.208,4.039-10.388,6.208-15.532v0
		l1.08-2.541l-0.121,2.759l-0.333,7.633l-0.917-0.295l5-7.633l0.291-0.443l0.426,0.316l10.298,7.633l-0.787,0.506l-1.632-7.633
		l-0.099-0.46l0.434-0.12l0.989-0.273l1-0.196c0.668-0.098,1.338-0.174,2.008-0.209c1.34-0.072,2.674-0.032,4,0.068
		c2.65,0.215,5.261,0.672,7.838,1.247c2.577,0.578,5.122,1.275,7.639,2.057c2.518,0.786,5.004,1.636,7.471,2.601l-0.677,0.557
		l-1.267-6.647l-0.147-0.772l0.761,0.194l4.989,1.268l-0.246,0.969l-4.989-1.268l0.614-0.578l1.267,6.647l0.169,0.889l-0.847-0.331
		c-2.421-0.946-4.903-1.797-7.395-2.574c-2.495-0.775-5.016-1.466-7.561-2.036c-2.543-0.568-5.115-1.017-7.698-1.227
		c-1.291-0.097-2.583-0.135-3.865-0.066c-0.641,0.033-1.275,0.106-1.905,0.197l-0.932,0.183l-0.909,0.25l0.335-0.58l1.632,7.633
		l0.277,1.294l-1.063-0.788l-10.298-7.633l0.716-0.128l-5,7.633l-0.997,1.522l0.079-1.818l0.333-7.633l0.959,0.218v0
		c-2.159,5.12-4.21,10.298-6.194,15.495c-1.98,5.2-3.887,10.428-5.695,15.689c-3.599,10.523-6.903,21.168-9.272,32.021
		c-1.152,5.426-2.102,10.917-2.314,16.437c-0.081,2.75,0.006,5.528,0.64,8.168c0.289,1.315,0.849,2.523,1.426,3.832
		c0.274,0.65,0.538,1.305,0.759,1.993c0.109,0.347,0.212,0.695,0.275,1.085c0.029,0.198,0.058,0.397,0.024,0.665
		c-0.022,0.134-0.054,0.301-0.196,0.485c-0.142,0.195-0.439,0.3-0.612,0.286c-0.358-0.016-0.542-0.131-0.731-0.225
		c-0.182-0.101-0.34-0.209-0.493-0.32c-0.301-0.224-0.576-0.458-0.842-0.699c-0.53-0.481-1.025-0.984-1.512-1.493
		c-0.968-1.02-1.892-2.071-2.801-3.133c-1.815-2.126-3.567-4.297-5.297-6.484c-3.455-4.379-6.821-8.819-10.132-13.306
		L61.539,113.194z"/>
</g>
<path fill="none" stroke="#010101" stroke-miterlimit="10" d="M72.555,141.09c5.188,6.813-2.129,9.146-2.129,9.146
	s-25.283,0.369-22.283-33.631c0,0,2.855-11.665,13.178-2.958"/>
<g>
	<path fill="#010101" d="M67.08,141.021c0,0-0.442,0.276-1.335,0.517c-0.228,0.047-0.479,0.1-0.753,0.157
		c-0.282,0.022-0.588,0.046-0.914,0.071c-0.33,0.013-0.679-0.04-1.057-0.063c-0.386-0.006-0.723-0.255-1.116-0.37
		c-0.398-0.119-0.75-0.363-1.125-0.595c-0.187-0.117-0.377-0.235-0.57-0.356c-0.173-0.144-0.336-0.305-0.508-0.46
		c-0.32-0.332-0.737-0.604-0.996-1.011c-0.288-0.386-0.582-0.78-0.881-1.181c-0.28-0.411-0.476-0.875-0.722-1.321
		c-0.227-0.454-0.502-0.897-0.647-1.391c-0.173-0.484-0.348-0.972-0.523-1.461l-0.258-0.737l-0.178-0.757
		c-0.213-1.013-0.527-2.012-0.65-3.021c-0.138-1.006-0.274-1.997-0.406-2.955c-0.113-0.959-0.128-1.893-0.193-2.774
		c-0.044-0.883-0.12-1.717-0.129-2.487c0.017-0.385-0.035-0.753,0.014-1.105c0.042-0.351,0.083-0.683,0.121-0.996
		c0.076-0.623,0.142-1.167,0.196-1.614c0.112-0.893,0.193-1.4,0.193-1.4s0.065,0.512,0.18,1.407c0.05,0.446,0.111,0.987,0.181,1.608
		c0.035,0.309,0.072,0.638,0.111,0.985c0.046,0.346-0.01,0.712,0.004,1.092c0.01,0.761,0.084,1.581,0.128,2.45
		c0.064,0.868,0.079,1.79,0.189,2.73c0.129,0.938,0.262,1.907,0.397,2.891c0.121,0.988,0.427,1.948,0.631,2.932l0.171,0.733
		l0.248,0.704c0.167,0.468,0.333,0.934,0.499,1.396c0.137,0.477,0.398,0.884,0.61,1.311c0.23,0.415,0.414,0.857,0.672,1.234
		c0.273,0.367,0.542,0.727,0.805,1.079c0.237,0.38,0.609,0.605,0.893,0.906c0.152,0.139,0.297,0.285,0.45,0.413
		c0.169,0.104,0.335,0.207,0.5,0.308c0.327,0.201,0.632,0.421,0.977,0.518c0.664,0.25,1.282,0.43,1.856,0.597
		c0.295,0.047,0.572,0.091,0.828,0.132c0.262,0.007,0.502,0.014,0.72,0.021c0.435-0.017,0.79-0.031,1.023-0.074
		C66.954,141.055,67.08,141.021,67.08,141.021z"/>
</g>
<g>
	<path fill="#010101" d="M54.694,117.774c0.007,0.004,0.026,0,0.135,0.032c0.096,0.032,0.307,0.088,0.437,0.164
		c0.302,0.141,0.681,0.376,1.11,0.672c0.225,0.14,0.432,0.324,0.67,0.501c0.23,0.185,0.487,0.363,0.726,0.576
		c0.479,0.423,1.004,0.856,1.499,1.32c0.491,0.467,0.981,0.934,1.442,1.371c0.455,0.442,0.86,0.873,1.217,1.232
		c0.708,0.724,1.181,1.206,1.181,1.206s-0.515-0.437-1.287-1.092c-0.388-0.324-0.831-0.714-1.322-1.111
		c-0.495-0.39-1.023-0.807-1.552-1.223c-0.53-0.413-1.085-0.789-1.59-1.159c-0.252-0.186-0.514-0.333-0.752-0.491
		c-0.242-0.147-0.463-0.309-0.68-0.417c-0.429-0.241-0.785-0.416-1.029-0.503c-0.134-0.058-0.156-0.042-0.206-0.068
		c-0.041-0.016-0.11-0.015-0.102-0.016L54.694,117.774z"/>
</g>
<g>
	<path fill="#010101" d="M63.398,127.627c0,0-0.044-0.017-0.127-0.048c-0.079-0.028-0.208-0.075-0.371-0.12
		c-0.325-0.094-0.805-0.215-1.375-0.244c-0.286-0.022-0.587,0.003-0.892,0.064c-0.294,0.076-0.601,0.188-0.829,0.415
		c-0.256,0.2-0.406,0.523-0.533,0.864c-0.093,0.363-0.146,0.731-0.156,1.161c-0.008,0.398,0.02,0.785,0.096,1.173
		c0.095,0.375,0.208,0.748,0.413,1.059c0.374,0.648,0.985,1.065,1.528,1.341c0.552,0.274,1.056,0.413,1.405,0.508
		c0.353,0.088,0.554,0.139,0.554,0.139s-0.205-0.035-0.564-0.097c-0.357-0.07-0.872-0.169-1.459-0.408
		c-0.576-0.241-1.26-0.628-1.728-1.31c-0.251-0.327-0.408-0.726-0.543-1.132c-0.115-0.409-0.181-0.85-0.202-1.284
		c-0.022-0.403,0-0.865,0.082-1.301c0.118-0.432,0.291-0.881,0.628-1.202c0.309-0.347,0.723-0.541,1.105-0.668
		c0.388-0.111,0.763-0.166,1.101-0.167c0.679-0.016,1.224,0.082,1.603,0.16c0.191,0.039,0.334,0.079,0.442,0.107
		c0.102,0.03,0.156,0.046,0.156,0.046L63.398,127.627z"/>
</g>
<g>
	<path d="M145.68,86.494c-0.99,0.108-1.958,0.338-2.915,0.586c-0.952,0.273-1.893,0.578-2.802,0.964
		c-0.457,0.187-0.913,0.373-1.356,0.589c-0.445,0.211-0.898,0.404-1.325,0.651c-0.43,0.241-0.872,0.457-1.29,0.717l-1.248,0.786
		c-0.412,0.268-0.799,0.573-1.198,0.857c-0.404,0.28-0.79,0.582-1.159,0.907l-1.137,0.934l-1.069,1.011
		c-0.363,0.331-0.712,0.674-1.034,1.045l-0.993,1.087c-0.338,0.355-0.616,0.764-0.928,1.143l-0.91,1.157l0.094-0.308
		c0.089,1.05,0.337,2.152,0.629,3.205c0.157,0.526,0.335,1.049,0.526,1.565c0.226,0.501,0.407,1.025,0.669,1.509
		c0.271,0.479,0.489,0.99,0.802,1.443c0.313,0.452,0.587,0.934,0.931,1.364l1.052,1.274l1.19,1.147
		c0.384,0.397,0.857,0.693,1.282,1.046l0.655,0.51l0.714,0.426c0.48,0.276,0.944,0.586,1.44,0.837l1.53,0.674
		c0.257,0.107,0.506,0.237,0.771,0.327l0.801,0.248l1.602,0.514c0.539,0.157,1.098,0.234,1.647,0.355l1.658,0.338l-0.007,0
		l1.375,0.063l-1.375,0.063h-0.003l-0.004,0l-1.687-0.216c-0.561-0.084-1.132-0.124-1.688-0.245l-1.66-0.409
		c-0.558-0.127-1.107-0.283-1.633-0.514l-1.601-0.627c-0.521-0.237-1.015-0.536-1.525-0.802l-0.76-0.412l-0.705-0.501
		c-0.458-0.349-0.968-0.639-1.385-1.04l-1.267-1.188l-1.126-1.324c-0.368-0.447-0.665-0.948-1-1.421
		c-0.335-0.474-0.573-1.006-0.864-1.507c-0.283-0.506-0.482-1.053-0.726-1.579c-0.208-0.54-0.403-1.087-0.576-1.64
		c-0.159-0.558-0.318-1.116-0.416-1.69c-0.114-0.575-0.19-1.138-0.233-1.752l-0.012-0.176l0.106-0.132l0.951-1.175
		c0.325-0.385,0.616-0.798,0.969-1.159l1.035-1.103c0.335-0.376,0.7-0.725,1.077-1.06l1.113-1.023l1.182-0.943
		c0.392-0.317,0.801-0.611,1.228-0.881c0.422-0.274,0.832-0.569,1.264-0.826l1.31-0.75c0.438-0.247,0.9-0.451,1.348-0.677
		c0.445-0.233,0.917-0.412,1.379-0.607c0.458-0.206,0.934-0.369,1.412-0.523c0.948-0.328,1.923-0.571,2.9-0.781
		c0.492-0.089,0.982-0.192,1.479-0.243C144.684,86.537,145.183,86.501,145.68,86.494z"/>
</g>
<g>
	<path fill="#010101" d="M113.184,184.822c-0.076-0.023-0.099-0.002-0.159,0.009c-0.052,0.013-0.107,0.03-0.163,0.05
		c-0.11,0.044-0.222,0.076-0.339,0.11l-0.375,0.104c-0.071,0.018-0.149,0.034-0.247,0.038c-0.063-0.009-0.104-0.007-0.196-0.04
		c-0.049-0.019-0.092-0.038-0.137-0.075c-0.068-0.056-0.13-0.131-0.172-0.207l-0.286-0.521l0.564-0.201l2.188-0.779l0.547-0.194
		l0.137-0.049l0.163-0.053l0.276-0.083l1.104-0.342c1.472-0.462,2.944-0.931,4.407-1.426c2.926-0.986,5.83-2.043,8.688-3.206
		c2.86-1.156,5.694-2.392,8.391-3.882c1.341-0.752,2.668-1.542,3.874-2.493c0.601-0.477,1.172-0.991,1.67-1.571
		c0.489-0.581,0.915-1.239,1.077-1.988l0.099,0.018c-0.128,0.782-0.53,1.489-1.005,2.109c-0.485,0.617-1.047,1.167-1.639,1.678
		c-1.189,1.014-2.488,1.888-3.827,2.681c-2.681,1.586-5.494,2.924-8.342,4.162c-2.857,1.22-5.757,2.332-8.681,3.375
		c-1.463,0.519-2.929,1.028-4.409,1.501l-1.112,0.35l-0.28,0.086l-0.07,0.021c0.029-0.01-0.031,0.012-0.042,0.016l-0.137,0.049
		l-0.546,0.197l-2.185,0.787l0.278-0.723c-0.022-0.054-0.064-0.107-0.112-0.143c-0.021-0.021-0.036-0.029-0.06-0.034
		c-0.039-0.007-0.021,0.005-0.028,0.011c0.018,0.025,0.057,0.054,0.103,0.079c0.095,0.053,0.212,0.081,0.329,0.12
		c0.117,0.036,0.241,0.071,0.364,0.134c0.062,0.028,0.124,0.06,0.185,0.099c0.056,0.031,0.144,0.098,0.162,0.146L113.184,184.822z"
		/>
</g>
<g>
	<path fill="#010101" d="M144.74,167.246c1.875,0.644,3.721,1.378,5.506,2.259c0.889,0.447,1.766,0.93,2.585,1.521
		c0.409,0.297,0.802,0.626,1.144,1.026c0.168,0.203,0.325,0.426,0.435,0.688c0.118,0.257,0.16,0.565,0.123,0.87l-0.046,0.383
		l-0.356-0.205c-0.981-0.567-2.058-1.038-3.148-1.294c-0.273-0.064-0.547-0.106-0.82-0.13c-0.137-0.021-0.27-0.005-0.405-0.01
		c-0.137-0.009-0.266,0.011-0.395,0.032c-0.13,0.017-0.26,0.033-0.375,0.084c-0.115,0.047-0.248,0.063-0.344,0.141
		c-0.099,0.07-0.218,0.112-0.303,0.2l-0.257,0.257l-0.071-0.523c0.97,0.7,1.864,1.459,2.734,2.266
		c0.426,0.41,0.851,0.824,1.251,1.266c0.404,0.436,0.792,0.892,1.152,1.372c0.37,0.473,0.698,0.982,1.001,1.511
		c0.158,0.26,0.27,0.551,0.406,0.826c0.144,0.271,0.234,0.572,0.326,0.872c0.096,0.299,0.182,0.6,0.204,0.922
		c0.025,0.318,0.114,0.629,0.062,0.955c-0.038,0.321-0.02,0.651-0.112,0.963c-0.093,0.312-0.203,0.619-0.308,0.925l-0.249,0.722
		l-0.545-0.587c-0.439-0.474-0.952-0.938-1.485-1.288c-0.267-0.169-0.547-0.314-0.806-0.373c-0.128-0.026-0.238-0.024-0.335-0.008
		c-0.04,0.025-0.084,0.033-0.128,0.056c-0.035,0.037-0.075,0.066-0.119,0.097l0.075-0.306c0.063,0.531,0.089,1.027,0.078,1.537
		c0.003,0.254-0.012,0.506-0.033,0.758c-0.019,0.252-0.03,0.504-0.075,0.753c-0.06,0.502-0.172,0.993-0.309,1.477
		c-0.107,0.49-0.331,0.948-0.499,1.413l-0.094-0.035c0.089-0.488,0.245-0.953,0.293-1.441l0.093-0.725l0.034-0.729
		c0.022-0.241,0.011-0.484,0.007-0.726c-0.001-0.242-0.008-0.483-0.033-0.725c-0.029-0.478-0.102-0.968-0.195-1.412l-0.039-0.184
		l0.113-0.122c0.083-0.089,0.171-0.178,0.264-0.26c0.103-0.069,0.225-0.12,0.341-0.173c0.244-0.068,0.483-0.074,0.701-0.04
		c0.429,0.075,0.781,0.248,1.112,0.433c0.654,0.386,1.205,0.839,1.742,1.359l-0.794,0.135c0.068-0.251,0.132-0.5,0.211-0.744
		c0.074-0.247,0.044-0.515,0.077-0.77c0.046-0.257-0.042-0.521-0.063-0.781c-0.017-0.263-0.097-0.521-0.185-0.776
		c-0.075-0.259-0.142-0.52-0.27-0.768c-0.119-0.248-0.208-0.508-0.349-0.749c-0.27-0.487-0.555-0.969-0.888-1.428
		c-0.323-0.463-0.676-0.911-1.048-1.342c-0.368-0.437-0.764-0.851-1.163-1.263c-0.808-0.811-1.681-1.58-2.58-2.272l-0.343-0.264
		l0.272-0.26l0.372-0.355c0.125-0.115,0.289-0.181,0.433-0.271c0.144-0.098,0.312-0.121,0.469-0.178
		c0.159-0.059,0.32-0.077,0.481-0.094c0.161-0.021,0.322-0.038,0.479-0.025c0.157,0.009,0.318-0.003,0.47,0.024
		c0.31,0.035,0.612,0.091,0.907,0.169c1.18,0.315,2.257,0.825,3.282,1.455l-0.402,0.178c0.062-0.371-0.121-0.795-0.413-1.155
		c-0.288-0.363-0.646-0.691-1.027-0.989c-0.765-0.598-1.61-1.106-2.472-1.58c-1.733-0.938-3.547-1.739-5.391-2.45L144.74,167.246z"
		/>
</g>
<path fill="none" stroke="#010101" stroke-miterlimit="10" d="M141.096,205.018c0,0-61,0.314-68.667-2.699
	c-7.666-3.012-8.865-11.787-8.865-11.787s1.533-10.361,13.865-9.271c10.303,0.91,90.199,9.271,90.199,9.271v14.734L141.096,205.018z
	"/>
<line fill="none" stroke="#010101" stroke-linejoin="round" stroke-miterlimit="10" x1="164.133" y1="281.338" x2="110.205" y2="309.064"/>
<path fill="none" stroke="#010101" stroke-linejoin="round" stroke-miterlimit="10" d="M131.127,277.996
	c3.671-2.383,7.893-4.436,12.729-5.895c5.455-1.646,10.002-1.33,16.769,5.129l1.428,3.439c6.826,2.949,1.459,8.438,1.459,8.438
	l-49.902,25.66c0,0-7.019,1.207-3.231-6.287"/>
<path fill="none" stroke="#010101" stroke-linejoin="round" stroke-miterlimit="10" d="M110.149,308.959
	c-0.978-0.262-0.943-2.758-0.943-2.758s0.768-2.496,2.617-6.184"/>
<line fill="none" stroke="#000000" stroke-miterlimit="10" x1="101.096" y1="250.434" x2="53.568" y2="250.434"/>
<path fill="none" stroke="#010101" stroke-miterlimit="10" d="M65.463,186.043l-14.033-1.578
	c-1.686-5.354,0.318-15.057,0.318-15.057l30.217,12.225"/>
<g>
	<path fill="#010101" d="M78.312,250.456c0.007-0.017-0.098,0.238-0.295,0.584c-0.203,0.347-0.521,0.818-0.956,1.333
		c-0.231,0.244-0.463,0.526-0.751,0.779c-0.273,0.269-0.584,0.523-0.914,0.777c-0.322,0.263-0.692,0.48-1.048,0.727
		c-0.382,0.205-0.753,0.442-1.152,0.623c-0.403,0.171-0.786,0.386-1.197,0.514c-0.407,0.136-0.793,0.309-1.19,0.402
		c-0.393,0.104-0.772,0.205-1.132,0.301c-0.366,0.067-0.711,0.132-1.03,0.19c-0.633,0.139-1.177,0.146-1.549,0.202
		c-0.374,0.04-0.588,0.063-0.588,0.063s0.212-0.038,0.582-0.105c0.367-0.082,0.905-0.129,1.523-0.313
		c0.311-0.081,0.646-0.168,1.002-0.262c0.347-0.119,0.712-0.246,1.09-0.376c0.381-0.12,0.747-0.317,1.132-0.477
		c0.39-0.153,0.746-0.39,1.121-0.581c0.371-0.201,0.709-0.456,1.059-0.676c0.321-0.26,0.657-0.49,0.941-0.76
		c0.292-0.261,0.565-0.521,0.8-0.789c0.251-0.253,0.444-0.529,0.64-0.768c0.362-0.5,0.615-0.941,0.771-1.256
		c0.151-0.322,0.198-0.471,0.204-0.487L78.312,250.456z"/>
</g>
<g>
	<path d="M160.727,129.752c0,0-1.504,0.191-3.738,0.599c-1.113,0.213-2.42,0.458-3.766,0.854c-0.337,0.097-0.672,0.214-0.993,0.35
		c-0.148,0.078-0.329,0.138-0.441,0.236l-0.25,0.167c-0.04,0.045-0.259,0.101-0.408,0.095c-0.926-0.17-1.474-0.737-2.065-1.252
		c-1.117-1.086-2.055-2.391-2.483-3.858c-0.186-0.733-0.24-1.521-0.007-2.224c0.22-0.706,0.691-1.258,1.184-1.615
		c0.491-0.373,1.013-0.564,1.465-0.708c0.456-0.144,0.861-0.213,1.196-0.257c0.668-0.082,1.049-0.086,1.049-0.086l0.01,0.074
		c0,0-0.092,0.025-0.264,0.071c-0.17,0.053-0.427,0.095-0.739,0.199c-0.313,0.102-0.69,0.221-1.101,0.401
		c-0.41,0.178-0.848,0.43-1.244,0.771c-0.4,0.335-0.733,0.795-0.865,1.352c-0.132,0.552-0.112,1.184,0.07,1.819
		c0.343,1.278,1.147,2.573,2.151,3.636c0.498,0.5,1.117,1.049,1.68,1.163c0.083,0.068,0.542-0.333,0.88-0.421
		c0.357-0.136,0.71-0.244,1.059-0.331c1.395-0.361,2.714-0.536,3.842-0.695c2.259-0.297,3.772-0.415,3.772-0.414L160.727,129.752z"
		/>
</g>
<path fill="none" stroke="#010101" stroke-miterlimit="10" d="M167.628,191.238"/>
<line fill="none" stroke="#010101" stroke-miterlimit="10" x1="160.454" y1="189.781" x2="160.454" y2="205.197"/>
<ellipse transform="matrix(-0.9626 -0.2711 0.2711 -0.9626 258.2848 250.3347)" fill="none" stroke="#000000" stroke-width="0.5" stroke-miterlimit="10" cx="146.431" cy="107.33" rx="1.52" ry="7.892"/>
<path fill="#839F80" d="M144.96,110.019c-0.775,2.049-1.007,3.859-0.517,4.045c0.488,0.186,1.516-1.323,2.289-3.371
	c0.778-2.048,1.012-3.858,0.521-4.044C146.765,106.463,145.737,107.972,144.96,110.019z"/>
<ellipse transform="matrix(-0.9348 -0.3551 0.3551 -0.9348 242.9551 265.9914)" cx="145.886" cy="110.701" rx="0.646" ry="2.523"/>
<path fill="none" stroke="#010101" stroke-width="0.75" stroke-linejoin="round" stroke-miterlimit="10" d="M81.965,206.566"/>
<g>
	<g>
		<path fill="none" stroke="#000000" stroke-width="0.75" stroke-miterlimit="10" d="M71.102,201.707c0,0,0,0.535,0,1.496"/>
		<path fill="none" stroke="#000000" stroke-width="0.75" stroke-miterlimit="10" stroke-dasharray="3.0484,3.0484" d="
			M71.102,206.25c0,9.22,0,30.178,0,41.16"/>
		<path fill="none" stroke="#000000" stroke-width="0.75" stroke-miterlimit="10" d="M71.102,248.935c0,0.532,0,1.033,0,1.499"/>
	</g>
</g>
<g>
	<path d="M112.074,286.564c0,0-0.812-0.918-2.004-2.302c-0.586-0.7-1.3-1.491-2.054-2.342c-0.762-0.837-1.571-1.753-2.462-2.511
		c-0.224-0.18-0.449-0.354-0.664-0.46c-0.276-0.131-0.551-0.261-0.824-0.39c-0.541-0.26-1.074-0.516-1.589-0.763
		c-0.514-0.265-0.993-0.589-1.449-0.865c-0.494-0.275-0.82-0.622-1.196-0.896c-1.422-1.152-2.334-1.97-2.334-1.97
		s1.056,0.623,2.585,1.631c0.383,0.231,0.786,0.579,1.235,0.771c0.456,0.231,0.937,0.476,1.434,0.729
		c0.524,0.229,1.065,0.465,1.616,0.705c0.271,0.123,0.544,0.248,0.819,0.373c0.335,0.159,0.592,0.359,0.847,0.559
		c0.957,0.837,1.755,1.767,2.484,2.66c0.727,0.892,1.347,1.767,1.884,2.51C111.456,285.506,112.074,286.564,112.074,286.564z"/>
</g>
<ellipse transform="matrix(-0.9969 -0.0789 0.0789 -0.9969 282.6921 227.8356)" fill="#FFFFFF" cx="145.849" cy="108.331" rx="0.551" ry="1.667"/>
<rect x="239.848" y="222.043" fill="#603913" width="10" height="3.922"/>
<rect x="173.348" y="222.043" fill="#603913" width="10" height="3.922"/>
<path fill="none" stroke="#010101" stroke-linejoin="round" stroke-miterlimit="10" d="M53.434,190.043"/>
<polygon fill="none" stroke="#010101" stroke-linejoin="round" stroke-miterlimit="10" points="48.398,279.855 53.434,279.855 
	53.434,197.938 43.363,197.938 "/>
<polygon fill="none" stroke="#010101" stroke-linejoin="round" stroke-miterlimit="10" points="46.744,328.881 55.117,328.881 
	53.434,279.855 48.398,279.855 "/>
<polygon fill="none" stroke="#010101" stroke-linejoin="round" stroke-miterlimit="10" points="86.73,328.881 95.104,328.881 
	93.42,279.855 88.385,279.855 "/>
<rect x="53.434" y="270.672" fill="none" stroke="#010101" stroke-linejoin="round" stroke-miterlimit="10" width="40.043" height="9.184"/>
<rect x="167.628" y="215.023" fill="none" stroke="#010101" stroke-linejoin="round" stroke-miterlimit="10" width="88.719" height="7.02"/>
<rect x="239.848" y="222.043" fill="none" stroke="#010101" stroke-linejoin="round" stroke-miterlimit="10" width="10" height="106.838"/>
<rect x="173.348" y="222.043" fill="none" stroke="#010101" stroke-linejoin="round" stroke-miterlimit="10" width="10" height="106.838"/>
<polygon fill="#58595B" stroke="#010101" stroke-linejoin="round" stroke-miterlimit="10" points="232.076,209.162 245.648,161.664 
	249.814,162.855 235.348,213.482 235.348,213.496 182.682,213.496 182.682,209.162 "/>
<rect x="184.723" y="207.172" fill="#414042" stroke="#010101" stroke-width="0.75" stroke-linejoin="bevel" stroke-miterlimit="10" width="3.75" height="1.99"/>
<rect x="189.307" y="207.172" fill="#414042" stroke="#010101" stroke-width="0.75" stroke-linejoin="bevel" stroke-miterlimit="10" width="3.75" height="1.99"/>
<rect x="193.598" y="207.172" fill="#414042" stroke="#010101" stroke-width="0.75" stroke-linejoin="bevel" stroke-miterlimit="10" width="3.75" height="1.99"/>
<rect x="198.182" y="207.172" fill="#414042" stroke="#010101" stroke-width="0.75" stroke-linejoin="bevel" stroke-miterlimit="10" width="3.75" height="1.99"/>
<rect x="202.848" y="207.172" fill="#414042" stroke="#010101" stroke-width="0.75" stroke-linejoin="bevel" stroke-miterlimit="10" width="3.75" height="1.99"/>
<rect x="207.43" y="207.172" fill="#414042" stroke="#010101" stroke-width="0.75" stroke-linejoin="bevel" stroke-miterlimit="10" width="3.75" height="1.99"/>
<rect x="211.723" y="207.172" fill="#414042" stroke="#010101" stroke-width="0.75" stroke-linejoin="bevel" stroke-miterlimit="10" width="3.75" height="1.99"/>
<rect x="216.305" y="207.172" fill="#414042" stroke="#010101" stroke-width="0.75" stroke-linejoin="bevel" stroke-miterlimit="10" width="3.75" height="1.99"/>
<rect x="220.889" y="207.172" fill="#414042" stroke="#010101" stroke-width="0.75" stroke-linejoin="bevel" stroke-miterlimit="10" width="3.75" height="1.99"/>
<rect x="225.473" y="207.172" fill="#414042" stroke="#010101" stroke-width="0.75" stroke-linejoin="bevel" stroke-miterlimit="10" width="3.75" height="1.99"/>
<path fill="none" stroke="#010101" stroke-miterlimit="10" d="M167.628,190.531c0,0,28.717-15.078,37.094,1.303
	c8.375,16.381-5.959,15.715-13.541,7.215c0,0-15.053,5.289-19.833,3.439c-2-0.773-3.72,2.777-3.72,2.777"/>
</svg>
